<svg width="100" height="39" viewBox="0 0 100 39" fill="none" xmlns="http://www.w3.org/2000/svg">
<path d="M5 32.654V7.34601H15.0845C16.9374 7.34601 18.4828 7.62199 19.7209 8.17396C20.9589 8.72592 21.8894 9.49208 22.5125 10.4724C23.1356 11.4446 23.4472 12.565 23.4472 13.8337C23.4472 14.8222 23.2504 15.6914 22.8569 16.4411C22.4633 17.1825 21.9222 17.7921 21.2335 18.27C20.553 18.7395 19.7742 19.0732 18.8969 19.2709V19.5181C19.8561 19.5593 20.7539 19.8311 21.5902 20.3337C22.4346 20.8362 23.1192 21.5406 23.644 22.4468C24.1687 23.3447 24.431 24.4157 24.431 25.6597C24.431 27.0025 24.099 28.2012 23.4349 29.2557C22.779 30.302 21.8074 31.1299 20.5202 31.7395C19.233 32.3492 17.6466 32.654 15.7609 32.654H5ZM10.3251 28.2795H14.6663C16.1503 28.2795 17.2325 27.9952 17.913 27.4268C18.5935 26.8501 18.9338 26.084 18.9338 25.1283C18.9338 24.4281 18.7657 23.8102 18.4296 23.2747C18.0934 22.7392 17.6138 22.3191 16.9907 22.0143C16.3758 21.7094 15.642 21.557 14.7893 21.557H10.3251V28.2795ZM10.3251 17.9363H14.2728C15.0025 17.9363 15.6502 17.8086 16.2159 17.5532C16.7898 17.2896 17.2407 16.9189 17.5687 16.4411C17.9048 15.9632 18.0729 15.3907 18.0729 14.7234C18.0729 13.8089 17.7491 13.0716 17.1014 12.5114C16.4619 11.9512 15.5518 11.6711 14.3712 11.6711H10.3251V17.9363Z" fill="white"/>
<path d="M27.896 32.654V7.34601H33.2211V28.2424H44.0189V32.654H27.896Z" fill="white"/>
<path d="M69.7097 20C69.7097 22.7598 69.1891 25.1077 68.1478 27.0437C67.1148 28.9797 65.7046 30.4585 63.9173 31.48C62.1381 32.4933 60.1376 33 57.9158 33C55.6775 33 53.6688 32.4892 51.8897 31.4677C50.1106 30.4461 48.7045 28.9674 47.6714 27.0314C46.6384 25.0954 46.1219 22.7516 46.1219 20C46.1219 17.2402 46.6384 14.8923 47.6714 12.9563C48.7045 11.0203 50.1106 9.54563 51.8897 8.53232C53.6688 7.51077 55.6775 7 57.9158 7C60.1376 7 62.1381 7.51077 63.9173 8.53232C65.7046 9.54563 67.1148 11.0203 68.1478 12.9563C69.1891 14.8923 69.7097 17.2402 69.7097 20ZM64.3108 20C64.3108 18.2123 64.0443 16.7047 63.5114 15.4772C62.9867 14.2497 62.2447 13.3188 61.2855 12.6844C60.3262 12.0501 59.203 11.7329 57.9158 11.7329C56.6286 11.7329 55.5053 12.0501 54.5461 12.6844C53.5868 13.3188 52.8407 14.2497 52.3078 15.4772C51.7831 16.7047 51.5207 18.2123 51.5207 20C51.5207 21.7877 51.7831 23.2953 52.3078 24.5228C52.8407 25.7503 53.5868 26.6812 54.5461 27.3156C55.5053 27.9499 56.6286 28.2671 57.9158 28.2671C59.203 28.2671 60.3262 27.9499 61.2855 27.3156C62.2447 26.6812 62.9867 25.7503 63.5114 24.5228C64.0443 23.2953 64.3108 21.7877 64.3108 20Z" fill="white"/>
<path d="M90.3552 15.5266C90.183 14.9252 89.9411 14.3939 89.6296 13.9325C89.318 13.4629 88.9368 13.0675 88.4858 12.7462C88.0431 12.4167 87.5348 12.1654 86.9609 11.9924C86.3952 11.8194 85.768 11.7329 85.0793 11.7329C83.7921 11.7329 82.6606 12.0542 81.685 12.6968C80.7175 13.3394 79.9632 14.2744 79.4221 15.5019C78.881 16.7212 78.6104 18.2123 78.6104 19.9753C78.6104 21.7383 78.8769 23.2376 79.4098 24.4734C79.9427 25.7091 80.697 26.6524 81.6727 27.3032C82.6483 27.9458 83.8003 28.2671 85.1285 28.2671C86.3337 28.2671 87.3626 28.0529 88.2153 27.6245C89.0761 27.1879 89.7321 26.5741 90.183 25.7833C90.6421 24.9924 90.8717 24.0574 90.8717 22.9781L91.9539 23.1388H85.4605V19.1103H96V22.2985C96 24.5228 95.5327 26.4341 94.598 28.0323C93.6634 29.6223 92.3761 30.8498 90.7364 31.7148C89.0966 32.5716 87.2191 33 85.1039 33C82.7426 33 80.6683 32.4769 78.881 31.4306C77.0937 30.3761 75.6999 28.8809 74.6996 26.9449C73.7076 25.0006 73.2116 22.6939 73.2116 20.0247C73.2116 17.9734 73.5067 16.1445 74.097 14.538C74.6955 12.9233 75.5318 11.5558 76.6058 10.4354C77.6799 9.31496 78.9302 8.46229 80.3568 7.87738C81.7834 7.29246 83.3288 7 84.9932 7C86.4198 7 87.748 7.21008 88.9778 7.63023C90.2076 8.04214 91.298 8.62706 92.2491 9.38498C93.2083 10.1429 93.9913 11.045 94.598 12.0913C95.2047 13.1293 95.5942 14.2744 95.7663 15.5266H90.3552Z" fill="white"/>
</svg>
